<svg width="285" height="160" viewBox="0 0 285 160" fill="none" xmlns="http://www.w3.org/2000/svg"><g><path d="M139.638 91.6958C144.449 91.6958 148.349 87.7531 148.349 82.8891C148.349 78.0251 144.449 74.0819 139.638 74.0819C139.338 74.0819 139.041 74.0973 138.748 74.1277C134.356 74.5783 130.928 78.3291 130.928 82.8891C130.928 83.4972 130.989 84.0903 131.105 84.6639C131.917 88.6771 135.429 91.6958 139.638 91.6958Z" fill="#82B536"></path><path fill-rule="evenodd" clip-rule="evenodd" d="M139.638 63.0734C125.005 63.0734 113.508 76.2837 109.153 82.8891C112.056 89.494 125.005 102.705 139.638 102.705C154.271 102.705 167.22 89.494 170.124 82.8891C165.769 76.2837 154.271 63.0734 139.638 63.0734ZM139.638 67.477C148.057 67.477 154.881 74.3772 154.881 82.8891C154.881 91.401 148.057 98.3012 139.638 98.3012C131.22 98.3012 124.396 91.401 124.396 82.8891C124.396 74.3772 131.22 67.477 139.638 67.477Z" fill="#82B536"></path><path d="M164.027 108.801C177.917 108.801 189.177 97.3705 189.177 83.2698C189.177 69.169 177.917 57.7381 164.027 57.7381C150.136 57.7381 138.876 69.169 138.876 83.2698C138.876 97.3705 150.136 108.801 164.027 108.801Z" fill="#FCA700"></path><path fill-rule="evenodd" clip-rule="evenodd" d="M146.533 101.505C158.223 98.4175 167.778 88.2938 170.222 82.7934C166.648 77.4329 158.272 67.6797 147.301 64.3301C146.015 65.4614 144.846 66.7213 143.813 68.0902C150.241 69.8897 154.955 75.7914 154.955 82.7934C154.955 90.0053 149.955 96.049 143.232 97.6474C144.202 99.0425 145.309 100.335 146.533 101.505ZM140.111 91.5075C144.733 91.2863 148.411 87.4697 148.411 82.7934C148.411 78.2334 144.913 74.4903 140.453 74.1025C139.344 76.9437 138.735 80.0355 138.735 83.2693C138.735 86.1542 139.22 88.9261 140.111 91.5075Z" fill="var(--color-fill)"></path><path d="M116.79 64.2231C116.973 64.5977 116.004 65.662 115.615 65.5195C115.064 65.305 114.558 64.9999 114.004 64.5102C113.425 63.8965 113.475 63.5322 113.031 63.1716C112.318 62.525 110.844 61.7224 110.49 61.5331C110.435 61.5038 110.389 61.4688 110.354 61.421C110.086 61.1041 108.882 59.7161 107.656 58.7315C106.844 57.982 106.338 57.52 106.075 57.2823C105.455 56.7056 105.093 56.1691 104.814 55.5507C104.663 55.2076 105.512 54.2785 105.867 54.3973C106.513 54.6119 107.078 54.9313 107.71 55.4874C107.955 55.7045 108.689 55.9093 109.449 56.5199C109.573 56.6213 109.67 56.7396 109.752 56.8852C110.431 58.1435 111.814 59.2218 111.814 59.2218C111.814 59.2218 113.744 60.9765 114.56 61.7116C115.168 62.2693 115.461 62.5456 115.641 62.7076C116.182 63.2179 116.53 63.6881 116.792 64.2159L116.79 64.2231Z" fill="var(--color-gestural-line)"></path><path d="M127.742 60.6807C127.733 61.0948 126.377 61.6005 126.1 61.2888C125.707 60.8469 125.398 60.3468 125.13 59.6528C124.898 58.8421 125.106 58.5401 124.882 58.0138C124.548 57.1074 123.61 55.7225 123.377 55.3907C123.342 55.3429 123.316 55.2894 123.307 55.2317C123.211 54.8238 122.787 53.0397 122.143 51.6091C121.762 50.5735 121.529 49.9274 121.407 49.5914C121.125 48.792 121.04 48.151 121.087 47.4796C121.108 47.1082 122.292 46.6699 122.548 46.9369C123.025 47.4231 123.378 47.9653 123.678 48.7534C123.79 49.0636 124.354 49.5796 124.747 50.4691C124.814 50.611 124.846 50.7679 124.844 50.9326C124.87 52.3596 125.6 53.9523 125.6 53.9523C125.6 53.9523 126.512 56.3985 126.895 57.4269C127.182 58.2037 127.316 58.5823 127.402 58.8076C127.654 59.5052 127.747 60.0855 127.734 60.6786L127.742 60.6807Z" fill="var(--color-gestural-line)"></path><path d="M150.554 109.464C149.509 108.877 148.678 110.066 149.494 110.859C150.645 111.987 151.849 113.168 153.396 114.685C155.172 116.369 155.774 116.659 156.826 117.962C156.963 118.122 157.093 118.298 157.23 118.48C157.329 118.61 157.428 118.739 157.527 118.877C157.649 119.045 157.771 119.219 157.901 119.395C158.403 120.104 158.937 120.889 159.516 121.742C160.073 120.873 160.637 119.99 161.193 119.128C161.338 118.907 161.483 118.686 161.627 118.465C161.711 118.343 161.795 118.229 161.879 118.114C162.047 117.886 162.207 117.657 162.367 117.444C162.999 116.598 163.533 115.927 163.784 115.607C163.891 115.477 163.99 115.333 164.081 115.188C164.691 114.136 167.648 109.616 170.842 106.248C173.021 103.817 174.477 102.399 175.239 101.667C177.03 99.93 178.326 98.5883 179.568 97.2014C180.247 96.439 179.454 95.4559 178.57 96.0048C176.954 96.9879 175.414 98.1541 173.555 99.9222C172.831 100.608 171.101 101.82 169.081 103.969C168.746 104.312 168.448 104.693 168.182 105.089C167.001 106.781 165.591 108.664 164.508 110.15C163.419 111.636 162.641 112.704 162.641 112.704C161.902 113.763 161.185 114.837 160.492 115.919L159.341 117.771L159.067 117.398L158.739 116.979L158.175 116.286C156.529 114.334 155.637 113.488 155.103 112.955C153.465 111.362 152.017 110.31 150.554 109.464Z" fill="var(--color-gestural-line)"></path><path d="M108.38 70.0086C108.721 70.2493 108.367 71.6537 107.963 71.7031C107.379 71.7793 106.789 71.7515 106.069 71.5822C105.272 71.3152 105.137 70.968 104.573 70.8682C103.641 70.6387 101.962 70.6331 101.561 70.6367C101.498 70.6367 101.447 70.6238 101.389 70.6022C101.002 70.452 99.2881 69.794 97.7401 69.5147C96.667 69.2503 96.0049 69.0718 95.6566 68.9858C94.8392 68.7687 94.2594 68.4771 93.7275 68.0552C93.4311 67.8253 93.7393 66.606 94.1015 66.5386C94.7661 66.4198 95.4153 66.4301 96.2385 66.6251C96.5564 66.7038 97.3044 66.5345 98.2592 66.7069C98.4161 66.7377 98.5586 66.7964 98.7016 66.8864C99.891 67.6663 101.622 67.9673 101.622 67.9673C101.622 67.9673 104.153 68.5908 105.226 68.8547C106.032 69.0538 106.416 69.1556 106.652 69.2143C107.366 69.4056 107.902 69.6551 108.383 69.9936L108.38 70.0086Z" fill="var(--color-gestural-line)"></path></g></svg>