<?xml version="1.0" encoding="UTF-8"?>
<svg xmlns="http://www.w3.org/2000/svg" version="1.1"
     viewBox="40 62 65 15">
  <g stroke-width=".26458">
    <g fill="orange">
      <path d="m41.907 62.682c3.7757-0.09474 7.5541-0.20284 11.331-0.1417 1.404 0.02273 2.8072 0.08143 4.2108 0.12214 8.0624 0.29189 16.115 0.81145 24.168 1.2855 4.9414 0.3379 9.8913 0.46933 14.843 0.53512 1.6867 0.01839 3.3734 0.03768 5.06 0.05842l-3.0433-2.212c-1.6524 0.01439-3.3048 0.02551-4.9572 0.01214-4.8845-0.04437-9.7681-0.16586-14.647-0.41095-8.0211-0.39992-16.038-0.88979-24.063-1.2004-1.427-0.05438-2.8535-0.12403-4.281-0.16312-3.9376-0.10784-7.879-0.06651-11.816-0.20682z"/>
      <path d="m40.242 65.661c0.41765 1.4749 0.56036 3.009 0.67228 4.5323 0.07338 1.1668 0.08507 2.3361 0.08761 3.5048-7.94e-4 0.16496-0.0016 0.32991-0.0024 0.49487l3.4883 1.777c-0.0011-0.16635-0.0021-0.3327-0.0032-0.49905-0.0063-1.1825-0.01249-2.3662-0.107-3.5457-0.11858-1.5317-0.28157-3.0631-0.5819-4.5711z"/>
      <path d="m47.16 76.468c0.31304-0.0734 0.62289-0.16205 0.93912-0.22021 1.8997-0.34939 3.0265-0.47144 5.0344-0.65076 3.6814-0.32877 7.3653-0.46308 11.058-0.56968 7.9307-0.0879 15.859-0.29173 23.79-0.3946 4.18 0.04317 8.3827-0.23837 12.552 0.16036 0.59249 0.04257 1.1117 0.25714 1.6377 0.5061l-3.0864-2.4318c-0.531-0.18582-1.0645-0.32795-1.633-0.3477-4.0664-0.1999-8.1401 0.13128-12.208 0.13177-7.9146 0.17004-15.829 0.3497-23.745 0.43094-5.8633 0.14953-11.749 0.33615-17.566 1.1288z"/>
      <path d="m97.378 63.981c0.28365 1.3461 0.38473 2.7217 0.45544 4.0929 0.03823 1.1018 0.03574 2.2026 0.19623 3.2952 0.06522 0.52549 0.23367 1.0133 0.47315 1.4815l3.6059 1.5944c-0.29839-0.40696-0.48162-0.85299-0.55692-1.3562-0.21451-1.0789-0.1971-2.1748-0.24518-3.2699-0.0852-1.3763-0.19551-2.7504-0.38068-4.1174z"/>
    </g>
    <text x="48.999165" y="69.415482" fill="orange" font-size="6.35px"
          style="inline-size:40.7676;white-space:pre" xml:space="preserve">
      <tspan x="48.999165" y="69.415482">Click me</tspan>
    </text>
  </g>
</svg>
